<svg xmlns="http://www.w3.org/2000/svg" width="600" height="600" overflow="hidden!important"><path d="M301.425 303.83h-2.85v-2.85h2.85v2.85z" fill="#e3dede"/><path d="M571.938 586.773c-6.258-13.526-23.355-33.57-42.35-39.108-23.482-6.848-76.486-15.127-96.14-19.73-15.754-3.694-47.486-32.188-58.607-41.753-1.995-1.71-3.628-5.24-3.668-7.866-.396-30.962 11.956-113.213 11.956-113.213H216.874s12.352 82.248 11.95 113.213c-.031 2.625-1.673 6.156-3.662 7.866-11.12 9.565-42.853 38.06-58.607 41.753-19.657 4.603-72.661 13.164-96.14 20.013-19 5.534-36.092 25.296-42.35 38.822C17.497 609.593 15 650.895 15 686.52h570c0-35.622-2.5-76.924-13.062-99.747z" fill="#f0c7b1"/><path d="M468.595 541.971c69.374 10.095 98.57 24.818 107.713 144.555H585c0-35.625-2.5-76.927-13.062-99.75-6.258-13.526-23.355-33.57-42.35-39.108-23.482-6.848-76.486-15.127-96.14-19.73-15.754-3.694-51.99-34.397-61.682-46.598 9.576 13.407 36.454 44.475 60.004 52.611 11.266 3.893 20.648 5.666 36.825 8.02zm-300.362-8.02c23.55-8.134 50.425-39.204 60.004-52.61-9.69 12.197-45.925 42.903-61.682 46.597-19.654 4.603-72.658 13.164-96.14 20.012-18.995 5.535-36.092 25.297-42.35 38.823-10.563 22.823-13.062 64.125-13.062 99.75h8.692c9.086-118.97 38.404-134.471 107.713-144.555 16.174-2.35 25.56-4.124 36.825-8.017z" fill="#ffe4d6"/><path d="M287.591 580.623s-14.46-4.586-20.186-6.78c-29.78-11.426-126.526-18.83-126.526-18.83s101.899 4.044 124.385 7.92c-1.305-13.586-8.598-57.011-8.598-57.011s14.674 47.922 18.265 60.012c1.921 6.464 12.66 14.689 12.66 14.689zm30.777-3.825c-.253.208-.544.479-.86.764a6.44 6.44 0 0 0 .86-.764zm-30.777 3.825s8.245 8.527 12.39 8.635c5.443.146 13.759-8.262 17.53-11.696-3.606 2.727-11.854 3.964-15.134 4.093-3.79.145-14.786-1.032-14.786-1.032zm59.901-21.43c-4.403.708-12.5 2.25-12.5 2.25l6.518-42.437c-1.84 8.752-12.75 46.201-23.142 57.792 5.444-4.605 17.55-6.814 23.724-7.706 29.172-4.23 29.16-4.227 117.026-14.08 0 0-82.852-.441-111.626 4.182z" fill="#e1ac8f"/><path d="M571.938 586.773c-6.258-13.526-23.355-33.57-42.35-39.108-23.482-6.848-76.486-15.127-96.14-19.73-15.754-3.694-47.486-32.188-58.607-41.753-1.995-1.71-3.628-5.24-3.668-7.866-.396-30.962 11.956-113.213 11.956-113.213H216.874s12.352 82.248 11.95 113.213c-.031 2.625-1.673 6.156-3.662 7.866-11.12 9.565-42.853 38.06-58.607 41.753-19.657 4.603-72.661 13.164-96.14 20.013-19 5.534-36.092 25.296-42.35 38.822C17.497 609.593 15 650.895 15 686.52h570c0-35.622-2.5-76.924-13.062-99.747z" fill="none" stroke="#c27b55" stroke-width="4.275"/><path d="M100.002 170.866c11.391 0 16.629-6.36 24.218-9.638-.008-7.932 2.039-23.933 3.282-32.907-16.136-1.852-38.871-1.852-55.006.001 1.243 8.973 3.29 24.972 3.281 32.903 7.593 3.277 12.831 9.641 24.225 9.641z" fill="url(#SvgjsLinearGradient3098)" transform="matrix(2.85 0 0 2.85 15 17.406)"/><path d="M382.243 695.643h-165.69V535.522c63.412 13.392 105.107 12.36 165.692 0v160.121z" fill="#f3f1f3"/><path d="M321.204 694.876c-7.909 0-30.572.593-47.06-.655l-.028-.487c-2.33-53.176 3.218-87.55 12.93-111.971l.138-.35-.265-.266c-2.58-2.576-6.912-5.514-11.497-8.621-4.592-3.115-9.334-6.33-12.358-9.251 1.781-2.086 3.976-4.144 6.692-6.273.698-.356 3.312-2.402 17.026-14.167.61-.525.983-.844 1.031-.884 2.332-.507 6.094-.835 10.654-.835 6.221 0 13.483.63 18.559 1.605 4.449 4.155 9.835 15.187 11.85 20.434-2.781 6.53-6.065 8.918-10.593 12.21-2.206 1.604-4.708 3.422-7.558 6.019l-.237.214.06.316c11.474 57.883 11.477 71.404 11.477 84.48.003 5.76.003 18.835.966 28.457a42.46 42.46 0 0 1-1.787.025z" fill="#131111"/><path d="M329.498 563.167c-2.15-5.686-7.724-16.9-12.198-20.974-8.197-1.604-22.752-2.402-29.84-.684-.308.251-17.807 15.342-17.983 14.991-2.583 2.018-5.096 4.287-7.182 6.812 5.873 5.917 18.966 12.985 24.225 18.24-10.403 26.163-15.19 61.531-12.968 112.233.029.313.029.655.057.969 19.255 1.482 47.168.943 50.018.635-3.306-32.224 4.098-29.796-12.512-113.58 8.744-7.966 14.15-8.54 18.383-18.642zm-14.963 54.264a9.108 9.108 0 0 1-.145-.37c5.7 30.067 3.933 53.1 8.24 76.87-13.499-.907-34.24-.149-47.798-.149 1.051-20.514 3.386-90.3 13.509-113.259.484-.131.966-.24 1.45-.356l-2.94 98.997 7.828-99.938c.057-.005.114-.014.171-.022l5.133 92.924 1.188-93.292c.075.003.146-.003.22 0l11.967 103.612-6.555-102.99c.895.179 1.793.401 2.685.663.085 0 .2.029.285.086.296 2.855 2.667 23.945 4.762 37.224zm-2.51-39.356c-7.907-3.565-18.135-2.924-26.018.684-4.791-5.167-11.628-8.77-21.46-15.364 1.567-1.366 3.59-3.05 6.298-5.159.228 0 9.918-7.897 10.089-8.065 2.622-2.394 4.959-5.102 7.182-7.467 8.35-.342 20.605.057 27.987.399 4.275 5.346 8.353 13.383 11.428 19.779-5.589 8.182-11.118 11.827-15.507 15.193z"/><path d="M237.859 624.675c-32.872-114.202-18.027-84.306-26.787-129.162 5.78-13.717 11.28-29.754 14.37-33.054l.227-.245c6.532 68.42 25.53 38.863 67.785 79.008-24.154 16.114-46.544 57.946-55.595 83.453zM388.9 495.516c-4.127-10.55-11.62-26.012-14.863-29.443 4.059 58.932-43.166 47.17-69.397 74.67 25.114 16.282 48.943 58.88 57.49 83.947 37.392-124.015 17.243-69.566 26.77-129.174z" fill="#f3f1f4"/><path d="M373.533 464.762c0 14.64-1.197 26.112-3.597 29.466-6.962 16.556-37.343 28.081-46.711 32.803-7.111 3.497-14.085 8.006-19.466 13.823 10.867 7.057 16.26 9.642 36.85 41.154 12.102 20.26 18.637 35.477 21.55 44.574 38.127-126.343 17.732-71.187 27.331-131.129-4.52-11.645-13.107-28.075-15.957-30.691zm10.397 55.655c-5.578 51.522-9.95 41.282-22.06 97.415-7.74-24.635-31.563-65.302-55.375-77.209 11.22-8.427 14.339-8.923 27.728-15.045 41.028-18.297 42.707-35.297 40.293-57.772 3.44 4.055 8.906 17.558 13.372 27.134-2.448 8.967-3.56 21.769-3.958 25.477zm-143.213-13.108c-12.563-10.4-9.006-23.261-14.788-46.212-2.571 2.85-8.967 18.9-15.447 34.356 1.587 7.97 1.94 21.06 2.166 25.194 1.593 34.776 4.987 36.38 25.165 105.906 8.638-25.379 32.94-69.454 57.684-85.525-19.753-18.03-44.617-24.875-54.78-33.719zm15.561 72.701c-6.33 10.448-12.873 21.318-18.154 37.848-12.66-57.767-17.097-48.347-22.03-97.356-.913-8.467-1.76-17.177-3.99-25.536 4.668-10.226 11.345-29.3 13.483-31.336 3.893 20.173.188 38.367 16.156 48.436 7.47 5.689 31.647 15.162 49.932 29.526-11.09 6.584-17.057 10.462-35.397 38.418z" fill="#cfc8d7"/><path d="M357.91 615.404l-3.446-7.564s26.071-80.298 30.617-103.24c2.6 23.808-27.172 110.804-27.172 110.804zm-118.105-3.143l4.093-9.288s-24.433-75.431-28.979-98.374c-2.6 23.809 24.886 107.662 24.886 107.662z" fill="#e1e0e1"/><path d="M370.643 574.88c20.135-59.377 7.855-64.27 17.97-83.987.381-.743 3.978 2.982 4.368 4.674 3.722 16.126 152.045 49.414 156.733 53.005 4.15 3.015 16.103 8.94 16.103 8.94 14.07 25.85 22.121 30.49 26.077 99.705.37 8.786-.174 33.632-.174 40.301l-243.843-1.926c.584-22.205 3.42-62.159 22.766-120.712zm-141.286 0c-20.135-59.377-7.854-64.27-17.97-83.987-.381-.743-3.978 2.982-4.368 4.674-3.722 16.126-152.045 49.414-156.733 53.005-4.15 3.015-16.103 8.94-16.103 8.94-14.07 25.85-22.121 30.49-26.077 99.705-.37 8.786.174 33.632.174 40.301l243.843-1.926c-.584-22.205-3.42-62.159-22.766-120.712z" fill="#535758"/><path d="M386.375 558.906c-12.973 46.703-30.697 88.68-38.492 136.686-2.537-.02 4.25-64.68 22.76-120.709 20.135-59.377 7.855-64.27 17.97-83.987.219-.427-1.765 5.632-.636 6.932-.416 22.021 5.004 39.053-1.602 61.078zm-172.75 0c12.973 46.703 30.697 88.68 38.492 136.686 2.537-.02-4.25-64.68-22.76-120.709-20.135-59.377-7.854-64.27-17.97-83.987-.219-.427 1.765 5.632.636 6.932.417 22.021-5.004 39.053 1.602 61.078z" fill="#3d4649"/><path d="M449.443 547.594s-6.51 7.3-24.613 19.73c15.142-16.771 22.119-23.509 22.119-23.509l2.494 3.78zm6.198 33.844l-4.354-3.896c-12.934 39.276-21.578 58.673-36.56 104.361 21.5-40.829 26.63-55.324 40.914-100.465zm-302.59-37.623s6.974 6.738 22.12 23.51c-18.104-12.432-24.614-19.73-24.614-19.73l2.494-3.78zm32.222 138.088c-14.982-45.688-23.626-65.085-36.56-104.361l-4.354 3.896c14.284 45.141 19.414 59.636 40.914 100.465z" fill="#2b3639"/><path d="M526.316 642.51c0-33.048 8.863-52.3 27.402-80.204 1.733 1.06 2.654 1.547 3.834 2.494-19.714 24.461-23.63 47.284-31.236 77.71zm-108.577 32.4c17.422-47.604 22.971-66.2 34.505-98.006-3.277-1-24.712-8.508-27.984-9.536 1.169 2.85 8.872 5.192 22.293 13.42 0 .003-14.504 43.902-28.814 94.121zm23.43-131.46s-9.553 11.8-18.992 23.735c9.656-7.61 16.382-16.085 24.77-23.37-11.384-9.599-29.957-24.293-41.956-34.454 9.474 10.18 36.178 34.09 36.178 34.09zm149.74 154.063l.814.005c0-6.669.542-31.515.174-40.301-3.959-69.215-12.01-73.855-26.077-99.705 0 0-11.953-5.925-16.103-8.94-3.802-2.91-110.563-28.278-149.596-45.258 45.63 31.267 131.903 42.827 157.434 61.486 12.346 9.026 28.97 86.266 33.353 132.713zM42.396 564.71c1.545-1.091 1.764-1.043 3.329-2.077 18.54 27.904 27.956 46.828 27.956 79.874-7.604-30.424-12.854-54.196-31.285-77.797zm111.05 16.08c13.421-8.228 21.125-10.57 22.293-13.42-3.272 1.025-24.707 8.535-27.984 9.535 11.537 31.806 17.083 50.403 34.505 98.006-14.31-50.222-28.814-94.121-28.814-94.121zm41.56-71.43c-12 10.158-30.573 24.855-41.956 34.454 8.388 7.288 15.117 15.76 24.77 23.37-9.442-11.936-18.993-23.735-18.993-23.735s26.708-23.908 36.178-34.089zM42.447 564.8c25.53-18.66 111.803-30.222 157.434-61.486-39.033 16.98-145.794 42.345-149.596 45.258-4.15 3.015-16.103 8.94-16.103 8.94-14.07 25.85-22.121 30.49-26.077 99.705-.37 8.786.174 33.632.174 40.301l.815-.005c4.38-46.447 21.004-123.687 33.353-132.713z" fill="#676767"/><path d="M391.901 491.572c-.14-.835-1.262-1.807-2.103-1.873-.844-.065-1.231 1.306-1.616 2.058-10.115 19.716 1.18 23.75-18.955 83.126-19.346 58.553-21.615 99.357-22.193 121.561l244.692 1.074c0-6.669 1.394-31.515 1.023-40.301-3.958-69.215-12.292-74.422-26.362-100.275 0 0-12.523-6.21-16.673-9.222-13.933-10.665-1.681.065-62.785-17.1-50.092-14.635-52.797-18.745-70.962-23.798-3.671-1.052-11.563-2.343-19.808-8.125-.755-.527-3.987-5.5-4.258-7.125zm-43.525 202.167c10.628-67.157 17.342-84.73 32.194-134.73 10.037-31.647 4.491-49.613 9.273-64.24.251-.763 1.331-.803 1.628-.048 6.937 17.71 26.328 21.82 53.677 48.584-16.567 16.567-20.83 21.033-22.971 23.883 2.462 1.248 15.908 6.353 28.215 11.115-.699 2.186-38.233 108.357-38.675 109.782 28.5-61.497 32.182-80.401 40.527-111.179-2.314-1.744-22.492-9.154-25.906-10.374 12.18-12.608 15.703-15.378 21.46-22.717 4.623 0-45.24-37.956-47.68-40.501 1.316 1.037 7.843 3.964 8.578 4.25 41.844 14.722 8.735 8.062 100.32 34.202 8.755 2.226 20.962 4.466 30.01 5.355.622.057 15.376 7.772 23.798 11.315-20.488 21.303-33.621 48.829-36.508 84.075 9.174-36.098 14.11-54.977 37.449-82.135 21.717 43.953 19.251 37.606 26.305 135.974-58.744-2.317-148.827-2.847-241.694-2.61zM203.844 498.7c-8.248 5.78-16.137 7.071-19.808 8.126-18.165 5.05-20.87 9.163-70.962 23.797-61.104 17.166-48.854 6.436-62.785 17.1-4.15 3.016-16.673 9.223-16.673 9.223-14.07 25.85-22.404 31.057-26.362 100.274-.37 8.787 1.023 33.633 1.023 40.302l244.692-1.074c-.578-22.205-2.847-63.008-22.193-121.561-20.135-59.377-8.843-63.41-18.955-83.126-.388-.753-.772-2.123-1.616-2.058-.84.066-1.964 1.038-2.103 1.873-.274 1.621-3.506 6.595-4.258 7.125zM9.93 696.35c7.057-98.367 4.588-92.02 26.305-135.973 23.336 27.158 28.275 46.037 37.45 82.135-2.888-35.246-16.018-62.772-36.509-84.075 8.422-3.543 23.176-11.258 23.797-11.315 9.05-.89 21.256-3.13 30.01-5.355 91.586-26.14 58.48-19.48 100.32-34.203.736-.288 7.263-3.212 8.58-4.25-2.44 2.546-52.307 40.502-47.681 40.502 5.76 7.339 9.28 10.11 21.46 22.717-3.414 1.22-23.592 8.627-25.906 10.374 8.345 30.778 12.027 49.682 40.527 111.179-.442-1.425-37.976-107.596-38.675-109.782 12.307-4.765 25.753-9.87 28.215-11.115-2.14-2.85-6.404-7.316-22.97-23.883 27.348-26.764 46.74-30.874 53.676-48.584.297-.758 1.377-.715 1.628.048 4.782 14.627-.767 32.593 9.274 64.24 14.85 50 21.566 67.573 32.193 134.73-92.867-.236-182.95.294-241.694 2.61z" fill="#1b272a"/><path d="M145.162 257.786c-4.232-7.016-18.032-26.217-28.588-23.524-8.584 2.2-8.473 14.168-9.137 21.247-.969 10.386-1.322 28.477 1.496 35.819 2.71 7.048 11.286 20.668 16.61 25.864 6.552 6.37 17.015 26.67 18.303 28.776 2.026 3.329 6.09 8.094 12.326 7.718 8.752-.527 16.313-8.798 17-12.782 3.708-21.632-16.994-64.86-28.01-83.118z" fill="#f0c7b1" stroke="#c27b55" stroke-width="4.275"/><path d="M140.97 300.528c-.407-1.605.02-4.312.439-6.923.379-2.38.735-4.628.519-6.219-.824-5.956-5.458-17.27-8.482-23.404-3.485-7.056-9.117-15.946-16.185-18.237-2.918-.949-4.842.185-5.954 1.334-.82.843-1.006 1.838-.738 1.958.27.117.875-.707 1.759-1.48.723-.632-1.448-.113 0 0-.585 2.965-2.466 17.961-1.169 28.908 1.02 8.613 2.993 15.045 3.6 16.009a21.83 21.83 0 0 0 .456 2.972c2.855 12.569 21.426 29.005 25.747 33.687.798.864 1.635 1.377 1.84 1.166s-.287-1.063-1.08-1.932c-4.269-4.652-22.717-21.036-25.476-33.16-2.927-12.865 11.15-31.94 13.392-35.976a71.26 71.26 0 0 1 2.862 5.23c.59 1.188 1.237 2.582 1.91 4.09-1.32 2.103-14.587 17.462-11.213 29.757 1.249 4.534 10.893 10.38 14.624 11.978 2.052.884 2.821 2.2 3.716 3.722 1.038 1.779.094 6.353 3.506 7.806.695.297 1.322.416 1.878.416.963 0 1.693-.37 2.231-.809.057.772.055 1.764.026 2.682-.034 1.191.134 1.736.422 1.758.293.026.598-.496.635-1.673.049-1.453.04-3.251-.219-4.115-.767-2.534-3.1-5.398-5.577-8.427-2.434-2.979-2.836-8.633-3.469-11.118zm-26.308-11.14c-6.692-19.731 3.656-37.704 5.158-40.411 2.884 1.137 7.302 6.25 9.18 9.22-1.368 2.374-14.059 17.918-14.338 31.19zm30.788 31.44c-3.09-1.316-2.012-5.654-3.01-7.364-.906-1.545-1.84-3.14-4.214-4.161-.513-.222-1.08-.559-1.662-.946-7.644-17.314.835-24.88 2.961-26.428.653 2.114 1.137 4.055 1.357 5.614.194 1.425-.168 3.7-.516 5.894-.436 2.722-.884 5.54-.42 7.364.696 2.716 1.172 8.465 3.68 11.537 2.226 2.725 4.512 5.535 5.293 7.826-.337.456-1.394 1.55-3.469.664z" fill="#c27b55"/><path d="M454.088 257.786c4.235-7.016 18.035-26.217 28.589-23.524 8.584 2.2 8.473 14.168 9.14 21.247.968 10.386 1.319 28.477-1.497 35.819-2.71 7.048-11.289 20.668-16.61 25.864-6.552 6.37-17.017 26.67-18.302 28.776-2.027 3.329-6.09 8.094-12.33 7.718-8.749-.527-16.31-8.798-17-12.782-3.705-21.632 17-64.86 28.01-83.118z" fill="#f0c7b1" stroke="#c27b55" stroke-width="4.275"/><path d="M454.818 311.648c-2.477 3.03-4.811 5.894-5.578 8.428-.262.866-.268 2.665-.222 4.115.04 1.177.345 1.699.641 1.673.291-.023.456-.567.422-1.758-.028-.918-.034-1.91.023-2.682.539.439 1.268.81 2.231.81.556 0 1.186-.12 1.881-.417 3.406-1.456 2.466-6.03 3.503-7.806.895-1.522 1.664-2.841 3.72-3.722 3.73-1.599 13.374-7.441 14.623-11.979 3.374-12.294-9.893-27.656-11.212-29.756.667-1.508 1.32-2.902 1.904-4.09a72.01 72.01 0 0 1 2.867-5.23c2.243 4.036 16.316 23.108 13.392 35.976-2.762 12.124-21.207 28.508-25.476 33.16-.795.869-1.291 1.72-1.086 1.932.21.21 1.046-.302 1.84-1.166 4.322-4.683 22.89-21.118 25.745-33.687a21.67 21.67 0 0 0 .462-2.973c.601-.96 2.576-7.392 3.596-16.008 1.297-10.947-.584-25.944-1.168-28.908 1.448-.114-.724-.632 0 0 .886.773 1.49 1.596 1.758 1.48.268-.12.083-1.112-.735-1.958-1.114-1.149-3.038-2.283-5.956-1.334-7.068 2.291-12.703 11.18-16.188 18.237-3.024 6.133-7.656 17.448-8.48 23.404-.216 1.59.14 3.84.52 6.219.416 2.61.846 5.318.438 6.923-.632 2.482-1.031 8.136-3.465 11.117zm15.435-53.451c1.881-2.97 6.296-8.08 9.18-9.22 1.502 2.707 11.85 20.68 5.162 40.41-.28-13.272-12.97-28.816-14.342-31.19zm-19.915 61.962c.778-2.292 3.066-5.102 5.292-7.827 2.505-3.072 2.984-8.82 3.68-11.536.461-1.824.016-4.643-.417-7.365-.35-2.194-.712-4.469-.518-5.894.216-1.559.7-3.5 1.353-5.614 2.126 1.547 10.605 9.117 2.961 26.428-.578.388-1.145.724-1.664.946-2.371 1.02-3.306 2.616-4.215 4.161-.998 1.71.083 6.05-3.007 7.365-2.075.892-3.132-.203-3.465-.664z" fill="#c27b55"/><path d="M300.006 19.877c-95.812.15-173.622 78.857-173.474 175.825.026 15.398 2.006 30.332 5.706 44.557h.003c.034.154 23.142 102.055 33.687 135.437 7.908 25.043 40.72 62.67 63.834 72.168 22.304 9.169 37.161 28.01 70.24 28.01s47.938-18.841 70.242-28.01c23.114-9.499 55.928-47.125 63.834-72.168 10.545-33.382 33.656-135.283 33.684-135.437h.006c3.7-14.227 5.683-29.159 5.706-44.557.157-96.968-77.657-175.674-173.468-175.825z" fill="#f0c7b1"/><path d="M416.072 65.106c29.708 31.818 48.071 75.736 48.005 124.22-.025 15.399-1.898 30.333-5.397 44.557h-.003c-.032.154-21.891 102.056-31.863 135.438-7.476 25.046-38.518 62.669-60.375 72.168-21.098 9.165-35.149 28.012-66.433 28.012-31.288 0-45.338-18.847-66.43-28.012-21.863-9.5-52.897-47.122-60.375-72.168-9.975-33.382-31.83-135.284-31.863-135.438h-.003c-3.503-14.227-5.375-29.158-5.398-44.557-.071-48.48 18.291-92.394 47.994-124.211-35.286 32.188-57.479 78.774-57.399 130.587.026 15.398 2.006 30.332 5.706 44.557h.003c.034.154 23.142 102.055 33.687 135.437 7.908 25.043 40.72 62.67 63.834 72.168 22.304 9.169 37.161 28.01 70.24 28.01s47.938-18.841 70.242-28.01c23.114-9.499 55.928-47.125 63.834-72.168 10.545-33.382 33.656-135.283 33.684-135.437h.006c3.7-14.227 5.683-29.159 5.706-44.557.085-51.819-22.108-98.408-57.402-130.596z" fill="#e8b9a0"/><path d="M300.006 19.877c-95.812.15-173.622 78.857-173.474 175.825.026 15.398 2.006 30.332 5.706 44.557h.003c.034.154 23.142 102.055 33.687 135.437 7.908 25.043 40.72 62.67 63.834 72.168 22.304 9.169 37.161 28.01 70.24 28.01s47.938-18.841 70.242-28.01c23.114-9.499 55.928-47.125 63.834-72.168 10.545-33.382 33.656-135.283 33.684-135.437h.006c3.7-14.227 5.683-29.159 5.706-44.557.157-96.968-77.657-175.674-173.468-175.825z" fill="none" stroke="#c27b55" stroke-width="4.275"/><path d="M96.227 139.237l8.297-.207c-.961 4.47-7.64 3.828-8.297.207z" fill="url(#SvgjsLinearGradient3102)" transform="matrix(2.85 0 0 2.85 15 17.406)"/><path d="M289.578 415.038c-1.058-.143-.898-1.65.228-1.545.122.017 12.277 1.556 22.452-.613 1.1-.213 1.425 1.297.37 1.522-7.971 1.705-18.285 1.306-23.05.636zm10.659-10.175c-4.284 0-8.436-1.484-12.609-2.211-4.674-.818-9.33-.117-14.008.296-4.776.425-15.199-.037-18.14-1.898-1.647-1.046-1.34-3.48.516-4.13 1.75-.627 4.477.673 6.244.99 8.186 1.467 12.495-.098 19.671-.337 10.975-.33 12.141 4.278 25.833 1.51 14.72-2.975 21.349-.723 31.911-3.904 1.448-.439 3.17-1.596 4.688-.815 1.753.906 1.667 3.377-.14 4.172-9.707 4.281-20.445 2.551-31.221 4.35-4.224.7-8.433 1.977-12.745 1.977z" fill="#c27b55"/><path d="M74.8 71.999c7.18 0 13 5.82 13 13s-5.82 13-13 13-13-5.82-13-13 5.82-13 13-13z" fill="url(#SvgjsRadialGradient3161)" transform="matrix(2.85 0 0 2.85 15 17.406)"/><path d="M245.85 259.656c0 9.442-7.658 17.1-17.1 17.1s-17.1-7.658-17.1-17.1c0-9.445 7.658-17.1 17.1-17.1 9.442-.003 17.1 7.655 17.1 17.1z" fill="#3e4442"/><path d="M73.328 78.066l-.071.009.085.406c-.006-.137-.009-.277-.014-.415zm.013.414c.07 1.972.185 3.729.517 4.364.175-.696-.123-2.43-.517-4.364zm.518 4.365c-.043.167-.108.281-.208.319-.1.038-.226-.006-.368-.103.041.167.037.297-.036.378-.072.081-.201.101-.373.078.113.13.171.249.146.353-.027.104-.134.182-.293.242.159.063.266.141.291.245.025.104-.033.223-.145.352.17-.021.301.001.371.082.071.081.075.212.035.379.141-.097.265-.139.365-.1.101.038.166.152.206.32.081-.152.171-.249.28-.26.104-.014.216.059.329.188.001-.172.037-.299.127-.36.088-.061.219-.049.379.013-.078-.152-.105-.281-.055-.377.05-.095.173-.146.344-.166-.141-.099-.227-.2-.225-.308 0-.108.084-.209.227-.306-.17-.021-.291-.072-.342-.167-.049-.095-.022-.225.058-.377-.162.06-.292.072-.38.011-.089-.061-.125-.188-.125-.36-.112.128-.224.199-.33.185-.108-.014-.199-.108-.278-.261zm.607.075c.479-.535 1.021-2.209 1.57-4.104-.854 1.777-1.569 3.386-1.57 4.104zm1.569-4.104c.06-.122.121-.246.178-.37-.021-.007-.042-.017-.063-.026-.038.133-.076.266-.115.396zm-1.063 4.454c.672-.252 1.931-1.483 3.297-2.905-1.581 1.176-2.963 2.269-3.297 2.905zm3.297-2.905l.305-.225c-.014-.018-.03-.033-.042-.049-.087.09-.174.183-.263.274zm-3.015 3.449c.713.088 2.4-.417 4.272-1.041-1.948.308-3.678.633-4.272 1.041zm4.272-1.04l.337-.052-.014-.057-.323.109zm-4.273 1.653c.59.412 2.318.747 4.262 1.063-1.865-.633-3.548-1.148-4.262-1.063zm4.263 1.063c.095.033.191.067.285.098a.454.454 0 0 0 .012-.05 18.227 18.227 0 0 1-.297-.048zm-4.551-.52c.333.637 1.708 1.738 3.282 2.924-1.359-1.43-2.609-2.668-3.282-2.924zm3.283 2.922l.179.189.03-.032c-.07-.052-.142-.105-.209-.157zm-3.788-2.575c-.003.719.703 2.331 1.547 4.113-.539-1.897-1.07-3.575-1.547-4.113zm1.547 4.114c.021.075.043.152.063.229l.039-.014a8.622 8.622 0 0 0-.102-.215zm-2.156-4.042c-.336.637-.461 2.39-.542 4.361.404-1.93.713-3.663.542-4.361zm-.542 4.361c-.017.075-.031.151-.047.228.014.003.025.003.039.005l.008-.233zm-.029-4.581c-.596.407-1.521 1.904-2.508 3.61 1.254-1.52 2.334-2.912 2.508-3.61zm-2.508 3.61l-.162.193.038.024.124-.217zm2.103-4.069c-.716.083-2.231.978-3.898 2.029 1.818-.762 3.418-1.491 3.898-2.029zm-3.899 2.031l-.263.11c.006.013.015.027.023.04.081-.049.161-.1.24-.15zm3.752-2.628c-.671-.257-2.429-.168-4.395-.011 1.964.168 3.722.265 4.395.011zm-4.395-.011a38.67 38.67 0 0 0-.323-.029c0 .019-.002.038 0 .056l.323-.027zm4.542-.583c-.473-.539-2.069-1.277-3.881-2.051 1.659 1.06 3.169 1.964 3.881 2.051zm-3.881-2.051a43.261 43.261 0 0 0-.315-.201.71.71 0 0 1-.029.055c.116.049.232.097.344.146zm4.29 1.593c-.169-.698-1.241-2.094-2.485-3.623.976 1.712 1.893 3.213 2.485 3.623zm-2.485-3.623c-.067-.115-.132-.232-.199-.349l-.056.039c.084.103.172.207.255.31z" fill="url(#SvgjsRadialGradient3378)" opacity=".7" transform="matrix(2.85 0 0 2.85 17.85 20.256)"/><path d="M74.886 78.086l-.07-.01-.024.414c.03-.134.063-.27.094-.404zm-.095.403c-.442 1.922-.787 3.649-.629 4.35.349-.628.509-2.38.629-4.35zm-.63 4.35c-.084.15-.176.243-.283.254-.106.01-.216-.064-.327-.195-.004.171-.042.297-.133.356-.09.059-.221.045-.38-.021.076.155.101.285.049.378-.053.094-.176.142-.345.158.137.101.22.204.217.312-.002.107-.089.207-.231.302.169.024.29.079.337.174.048.096.018.225-.064.375.161-.057.292-.065.379-.002.087.063.12.19.116.363.117-.125.229-.196.337-.179.105.014.194.113.27.268.045-.167.113-.279.216-.315.101-.036.225.01.363.111-.036-.167-.029-.299.044-.378.073-.079.205-.096.376-.072-.111-.132-.168-.251-.138-.355.028-.104.136-.18.299-.237-.16-.064-.263-.145-.288-.25-.023-.105.037-.223.154-.349-.172.016-.301-.006-.37-.088-.07-.082-.072-.214-.028-.379-.142.094-.268.134-.367.093-.103-.041-.165-.156-.203-.324zm.568.231c.601-.394 1.557-1.871 2.578-3.558-1.285 1.495-2.391 2.863-2.578 3.558zm2.578-3.559c.089-.102.18-.206.268-.311-.019-.013-.036-.028-.055-.042-.071.119-.142.238-.213.353zm-2.18 4.027c.715-.07 2.25-.934 3.937-1.953-1.833.727-3.45 1.425-3.937 1.953zm3.936-1.954l.354-.138c-.01-.021-.021-.04-.028-.059-.108.066-.216.133-.326.197zm-3.804 2.553c.666.27 2.426.218 4.395.101-1.961-.208-3.716-.342-4.395-.101zm4.395.1l.339.037.002-.058-.341.021zm-4.554.492c.462.551 2.046 1.321 3.842 2.129-1.639-1.095-3.131-2.027-3.842-2.129zm3.841 2.129c.083.057.167.114.25.168a1.01 1.01 0 0 0 .025-.045c-.09-.039-.184-.081-.275-.123zm-4.261-1.679c.156.701 1.2 2.12 2.414 3.674-.943-1.734-1.83-3.254-2.414-3.674zm2.414 3.671l.125.229c.012-.009.024-.016.037-.024l-.162-.205zm-2.991-3.467c-.188.693.076 2.433.43 4.373-.031-1.972-.109-3.73-.43-4.373zm.429 4.373c.001.078.003.158.003.238.014-.002.027-.004.041-.004a19.229 19.229 0 0 0-.044-.234zm-1.036-4.462c-.49.528-1.064 2.189-1.652 4.072.889-1.759 1.637-3.353 1.652-4.072zm-1.653 4.072l-.104.208.036.015.068-.223zM73 84.934c-.68.239-1.962 1.446-3.357 2.838 1.607-1.144 3.009-2.209 3.357-2.838zm-3.356 2.838l-.205.145c.01.011.02.02.029.032.057-.059.117-.117.176-.177zm3.084-3.387c-.713-.104-2.407.368-4.291.952 1.955-.266 3.688-.556 4.291-.952zm-4.291.954c-.092.013-.187.024-.283.039a.32.32 0 0 0 .013.044c.091-.026.181-.056.27-.083zm4.304-1.567c-.582-.423-2.303-.792-4.242-1.149 1.854.671 3.526 1.22 4.242 1.149zm-4.242-1.149l-.305-.112-.015.054.32.058zm4.539.612c-.318-.643-1.668-1.769-3.219-2.986 1.328 1.455 2.553 2.719 3.219 2.986zm-3.22-2.985l-.251-.275-.042.046c.099.076.198.152.293.229zm3.733 2.649c.017-.718-.656-2.344-1.464-4.142.5 1.906.998 3.593 1.464 4.142zm-1.464-4.142l-.101-.389a1.17 1.17 0 0 0-.063.023l.164.366z" fill="url(#SvgjsRadialGradient3382)" opacity=".4" transform="matrix(2.85 0 0 2.85 17.85 20.256)"/><path d="M235.459 259.656a6.709 6.709 0 0 1-13.415 0 6.707 6.707 0 1 1 13.415 0z" fill="#3e4442"/><path d="M235.459 259.656a6.709 6.709 0 0 1-13.415 0 6.707 6.707 0 1 1 13.415 0z" opacity=".9"/><path d="M70.717 86.748a.981.981 0 1 1 1.091 1.63.981.981 0 0 1-1.091-1.63z" fill="url(#SvgjsLinearGradient3388)" opacity=".5" transform="matrix(2.85 0 0 2.85 17.85 20.256)"/><path d="M75.86 83.672c-.251.374-.969.331-1.606-.096-.638-.427-.95-1.078-.7-1.451v-.001c.25-.374.969-.331 1.605.097.639.426.951 1.076.701 1.451z" fill="url(#SvgjsLinearGradient3392)" opacity=".5" transform="matrix(2.85 0 0 2.85 17.85 20.256)"/><path d="M78.716 82.673c-.568.873-2.036.925-3.275.117-1.24-.808-1.784-2.17-1.215-3.043.568-.872 2.036-.924 3.275-.117 1.239.809 1.783 2.172 1.215 3.043z" fill="url(#SvgjsLinearGradient3396)" opacity=".75" transform="matrix(2.85 0 0 2.85 17.85 20.256)"/><path d="M175.164 259.653c0 39.35 24.245 71.25 54.15 71.25s54.15-31.9 54.15-71.25-24.245-71.25-54.15-71.25-54.15 31.9-54.15 71.25zm15.966 0c0-20.463 16.587-37.05 37.05-37.05s37.05 16.587 37.05 37.05c0 20.463-16.587 37.05-37.05 37.05s-37.05-16.587-37.05-37.05z" fill="#f0c7b1"/><path d="M191.13 259.653c0 20.463 16.587 37.05 37.05 37.05s37.05-16.587 37.05-37.05c0-20.463-16.587-37.05-37.05-37.05s-37.05 16.587-37.05 37.05zm2.85 0c0-18.887 15.313-34.2 34.2-34.2s34.2 15.313 34.2 34.2c0 18.89-15.313 34.2-34.2 34.2s-34.2-15.31-34.2-34.2z"/><path d="M137.801 84.999c0 7.18-5.82 13-13 13s-13-5.82-13-13 5.82-13 13-13 13 5.82 13 13z" fill="url(#SvgjsRadialGradient3169)" transform="matrix(2.85 0 0 2.85 15 17.406)"/><path d="M388.35 259.656c0 9.442-7.658 17.1-17.097 17.1-9.442 0-17.103-7.658-17.103-17.1 0-9.445 7.66-17.1 17.103-17.1 9.44-.003 17.097 7.655 17.097 17.1z" fill="#3e4442"/><path d="M125.328 78.066l-.071.009c.029.135.058.271.085.406-.006-.137-.009-.277-.014-.415zm.013.414c.069 1.972.185 3.729.518 4.364.174-.696-.124-2.43-.518-4.364zm.517 4.365c-.042.167-.108.281-.207.319-.101.038-.226-.006-.367-.103.04.167.036.297-.036.378-.072.081-.201.101-.372.078.112.13.171.249.146.353-.028.104-.134.182-.293.242.158.063.265.141.29.245.025.104-.032.223-.145.352.17-.021.3.001.37.082.071.081.075.212.035.379.141-.097.266-.139.365-.1.102.038.166.152.206.32.08-.152.172-.249.279-.26.105-.014.217.059.329.188.002-.172.037-.299.128-.36.087-.061.219-.049.379.013-.078-.152-.104-.281-.056-.377.051-.095.174-.146.345-.166-.141-.099-.228-.2-.225-.308-.001-.108.084-.209.227-.306-.171-.021-.291-.072-.342-.167-.05-.095-.022-.225.057-.377-.161.06-.291.072-.38.011s-.124-.188-.125-.36c-.111.128-.224.199-.33.185-.107-.014-.198-.108-.278-.261zm.608.075c.479-.535 1.021-2.209 1.569-4.104-.853 1.777-1.567 3.386-1.569 4.104zm1.569-4.104c.06-.122.121-.246.179-.37-.021-.007-.042-.017-.063-.026l-.116.396zm-1.063 4.454c.673-.252 1.932-1.483 3.298-2.905-1.582 1.176-2.963 2.269-3.298 2.905zm3.298-2.905l.305-.225c-.015-.018-.03-.033-.042-.049-.088.09-.175.183-.263.274zm-3.015 3.449c.713.088 2.399-.417 4.271-1.041-1.948.308-3.678.633-4.271 1.041zm4.271-1.04l.337-.052-.014-.057-.323.109zm-4.273 1.653c.591.412 2.318.747 4.263 1.063-1.866-.633-3.549-1.148-4.263-1.063zm4.263 1.063c.095.033.19.067.285.098a.92.92 0 0 0 .013-.05 15.38 15.38 0 0 1-.298-.048zm-4.551-.52c.332.637 1.708 1.738 3.282 2.924-1.358-1.43-2.609-2.668-3.282-2.924zm3.283 2.922l.178.189c.01-.012.02-.021.031-.032-.07-.052-.142-.105-.209-.157zm-3.787-2.575c-.003.719.702 2.331 1.547 4.113-.54-1.897-1.071-3.575-1.547-4.113zm1.547 4.114c.021.075.043.152.063.229a.474.474 0 0 1 .039-.014 49.358 49.358 0 0 0-.102-.215zm-2.157-4.042c-.336.637-.461 2.39-.542 4.361.404-1.93.713-3.663.542-4.361zm-.542 4.361c-.017.075-.031.151-.047.228.014.003.024.003.039.005l.008-.233zm-.03-4.581c-.596.407-1.521 1.904-2.508 3.61 1.255-1.52 2.334-2.912 2.508-3.61zm-2.508 3.61c-.052.063-.107.13-.161.193.013.008.024.014.037.024l.124-.217zm2.103-4.069c-.716.083-2.23.978-3.897 2.029 1.818-.762 3.418-1.491 3.897-2.029zm-3.897 2.031c-.087.036-.175.072-.263.11a.273.273 0 0 0 .023.04l.24-.15zm3.752-2.628c-.672-.257-2.43-.168-4.396-.011 1.965.168 3.722.265 4.396.011zm-4.396-.011l-.322-.029c-.001.019-.003.038-.001.056l.323-.027zm4.543-.583c-.474-.539-2.069-1.277-3.882-2.051 1.659 1.06 3.169 1.964 3.882 2.051zm-3.882-2.051l-.315-.201a1.399 1.399 0 0 1-.028.055c.115.049.232.097.343.146zm4.29 1.593c-.169-.698-1.241-2.094-2.485-3.623.976 1.712 1.893 3.213 2.485 3.623zm-2.485-3.623a19.685 19.685 0 0 1-.198-.349l-.057.039c.085.103.172.207.255.31z" fill="url(#SvgjsRadialGradient3401)" opacity=".7" transform="matrix(2.85 0 0 2.85 12.15 20.256)"/><path d="M126.886 78.086l-.07-.01-.024.414c.029-.134.062-.27.094-.404zm-.095.403c-.443 1.922-.787 3.649-.63 4.35.35-.628.51-2.38.63-4.35zm-.63 4.35c-.084.15-.177.243-.283.254-.106.01-.216-.064-.327-.195-.004.171-.042.297-.133.356-.09.059-.221.045-.38-.021.075.155.101.285.049.378-.054.094-.176.142-.346.158.138.101.22.204.217.312-.002.107-.089.207-.23.302.17.024.289.079.337.174.048.096.018.225-.064.375.162-.057.293-.065.38-.002.087.063.12.19.115.363.117-.125.229-.196.337-.179.105.014.194.113.27.268.046-.167.113-.279.216-.315.101-.036.226.01.363.111-.035-.167-.028-.299.045-.378.072-.079.204-.096.375-.072-.11-.132-.168-.251-.138-.355.027-.104.136-.18.299-.237-.159-.064-.263-.145-.288-.25-.022-.105.038-.223.154-.349-.172.016-.302-.006-.37-.088-.07-.082-.072-.214-.027-.379-.143.094-.269.134-.368.093-.102-.041-.166-.156-.203-.324zm.568.231c.601-.394 1.557-1.871 2.578-3.558-1.285 1.495-2.391 2.863-2.578 3.558zm2.578-3.559c.089-.102.18-.206.269-.311-.02-.013-.037-.028-.056-.042-.071.119-.142.238-.213.353zm-2.18 4.027c.715-.07 2.249-.934 3.937-1.953-1.833.727-3.45 1.425-3.937 1.953zm3.936-1.954l.354-.138c-.01-.021-.021-.04-.028-.059-.108.066-.216.133-.326.197zm-3.804 2.553c.666.27 2.426.218 4.396.101-1.963-.208-3.717-.342-4.396-.101zm4.395.1l.339.037.002-.058-.341.021zm-4.554.492c.463.551 2.046 1.321 3.842 2.129-1.639-1.095-3.131-2.027-3.842-2.129zm3.841 2.129c.082.057.167.114.25.168a.328.328 0 0 0 .024-.045 15.678 15.678 0 0 1-.274-.123zm-4.26-1.679c.155.701 1.199 2.12 2.413 3.674-.943-1.734-1.829-3.254-2.413-3.674zm2.414 3.671l.124.229a.337.337 0 0 1 .037-.024c-.054-.068-.11-.138-.161-.205zm-2.992-3.467c-.188.693.076 2.433.43 4.373-.031-1.972-.109-3.73-.43-4.373zm.429 4.373c.001.078.003.158.003.238.015-.002.026-.004.04-.004a9.592 9.592 0 0 0-.043-.234zm-1.037-4.462c-.489.528-1.064 2.189-1.652 4.072.89-1.759 1.637-3.353 1.652-4.072zm-1.652 4.072l-.104.208.035.015.069-.223zM125 84.934c-.68.239-1.961 1.446-3.356 2.838 1.606-1.144 3.008-2.209 3.356-2.838zm-3.356 2.838l-.205.145c.01.011.02.02.029.032.057-.059.118-.117.176-.177zm3.084-3.387c-.713-.104-2.406.368-4.29.952 1.954-.266 3.688-.556 4.29-.952zm-4.29.954c-.093.013-.188.024-.283.039l.013.044c.09-.026.18-.056.27-.083zm4.303-1.567c-.582-.423-2.303-.792-4.242-1.149 1.854.671 3.526 1.22 4.242 1.149zm-4.242-1.149l-.305-.112a.752.752 0 0 0-.015.054l.32.058zm4.539.612c-.318-.643-1.669-1.769-3.22-2.986 1.329 1.455 2.554 2.719 3.22 2.986zm-3.22-2.985l-.251-.275-.043.046c.099.076.2.152.294.229zm3.733 2.649c.017-.718-.656-2.344-1.464-4.142.501 1.906.998 3.593 1.464 4.142zm-1.464-4.142l-.102-.389a1.17 1.17 0 0 0-.063.023l.165.366z" fill="url(#SvgjsRadialGradient3405)" opacity=".4" transform="matrix(2.85 0 0 2.85 12.15 20.256)"/><path d="M377.959 259.656a6.706 6.706 0 0 1-6.706 6.706 6.707 6.707 0 1 1 0-13.415 6.705 6.705 0 0 1 6.706 6.709z" fill="#3e4442"/><path d="M377.959 259.656a6.706 6.706 0 0 1-6.706 6.706 6.707 6.707 0 1 1 0-13.415 6.705 6.705 0 0 1 6.706 6.709z" opacity=".9"/><path d="M122.718 86.748a.98.98 0 1 1 1.09 1.628.98.98 0 0 1-1.09-1.628z" fill="url(#SvgjsLinearGradient3411)" opacity=".5" transform="matrix(2.85 0 0 2.85 12.15 20.256)"/><path d="M127.859 83.672c-.251.374-.969.331-1.605-.096-.638-.427-.95-1.078-.7-1.451l.001-.001c.25-.374.969-.331 1.605.097.638.426.95 1.076.699 1.451z" fill="url(#SvgjsLinearGradient3415)" opacity=".5" transform="matrix(2.85 0 0 2.85 12.15 20.256)"/><path d="M130.717 82.673c-.569.873-2.036.925-3.276.117-1.239-.808-1.784-2.17-1.215-3.043.568-.872 2.035-.924 3.275-.117 1.239.809 1.783 2.172 1.216 3.043z" fill="url(#SvgjsLinearGradient3419)" opacity=".75" transform="matrix(2.85 0 0 2.85 12.15 20.256)"/><path d="M369.546 188.403c-29.905 0-54.15 31.9-54.15 71.25s24.245 71.25 54.15 71.25 54.15-31.9 54.15-71.25-24.242-71.25-54.15-71.25zm1.137 108.303c-20.463 0-37.05-16.587-37.05-37.05 0-20.463 16.587-37.05 37.05-37.05s37.05 16.587 37.05 37.05c0 20.46-16.59 37.05-37.05 37.05z" fill="#f0c7b1"/><path d="M370.683 222.603c-20.463 0-37.05 16.587-37.05 37.05 0 20.463 16.587 37.05 37.05 37.05s37.05-16.587 37.05-37.05c0-20.463-16.59-37.05-37.05-37.05zm0 71.25c-18.887 0-34.2-15.31-34.2-34.2 0-18.887 15.313-34.2 34.2-34.2s34.2 15.313 34.2 34.2c0 18.89-15.313 34.2-34.2 34.2z"/><path d="M141 113.974c.035 22.622-18.292 40.994-40.938 41.025-22.642.037-41.028-18.273-41.063-40.9-.035-22.62 18.292-41.064 40.937-41.1 22.643-.035 41.031 18.35 41.064 40.975z" fill="url(#SvgjsRadialGradient2886)" transform="matrix(2.85 0 0 2.85 15 17.406)"/><path d="M137.5 53.999c0 20.711-16.789 37.5-37.499 37.5-20.711 0-37.501-16.789-37.501-37.5s16.79-37.5 37.501-37.5c20.71 0 37.499 16.789 37.499 37.5z" fill="url(#SvgjsRadialGradient2890)" transform="matrix(2.85 0 0 2.85 15 17.406)"/><path d="M173.14 227.935c21.305-26.741 57.964-22.292 88.003-17.995 7.641 1.095 15.507 1.916 23 3.808 5.37 1.354 9.59 7.473 5.275 12.415-2.018 2.35-6.421 1.915-9.14 1.858-35.97-.727-76.628-21.412-107.137-.086zm253.905-1.083c-6.168-4.126-12.694-7.04-20.073-8.233-27.066-4.39-78.62 13.651-92.172 9.832-8.3-2.342-6.62-10.656-2.95-12.705 2.21-1.234 2.822-1.203 22.541-4.594 33.507-5.757 71.025-10.334 92.654 15.7z" fill="#2a232b"/><path d="M274.678 346.578c-2.502 5.882 16.912 12.232 24.279 12.623 7.98.419 30.341-8.265 26.55-14.228-3.987-6.255-18.932-.815-25.382-.815-6.418-.002-22.096-5.429-25.447 2.42z" fill="#e1ac8f"/><path d="M305.293 351.021c-.656-2.163 5.346-4.514 7.572-4.828 3.138-.456 9.576 2.286 9 4.537-.524 1.99-6.122-1.519-8.15-1.222-2.093.305-7.801 3.54-8.422 1.513zm-19.617-.704c2.759 0 6.851 1.776 7.604.211.898-1.867-6.096-4.164-8.151-3.91-1.699.2-7.79 3.748-6.951 5.241.78 1.37 3.861-1.542 7.498-1.542z" fill="#c27b55"/><path d="M300.254 336.603c1.73 0 4.964-2.109 5.107-6.355.573-17.123-2.725-67.925-5.107-67.745-2.223.168-6.461 50.265-5.552 67.745.225 4.28 3.6 6.355 5.552 6.355z" fill="#fff5ef" opacity=".2"/><path d="M145.465 274.798c-8.545-7.13-19.235-25.476-24.006-51.192-1.015-5.27-1.739-10.687-2.508-16.424-3.223-24.071-10.132-52.124-5.352-80.863 5.737-35.16 32.122-73.225 65.652-94.726 51.845-33.55 182.888-48.544 210.2-4.38 15.842-.579 32.937 3.56 44.741 12.742 39.071 29.31 54.179 128.851 43.352 178.293-7.205 33.764-9.095 42.62-23.553 55.857 5.164-154.82-2.821-113.045-9.422-154.62-7.738-5.672-10.622-3.33-22.54-10.095-23.707-17.505-22.558-24.516-33.297-36.76-9.565 11.312-23.316 21.27-33.935 25.87 2.69-4.41 4.985-9.354 6.504-12.534l-1.271-1.064c-8.918 6.447-26.936 15.613-38.008 16.596 5.948-7.31 5.253-6.39 7.63-10.844-8.881 5.46-18.317 9.168-30.222 10.211 11.215-5.54 16.242-9.33 24.94-16.578l-.795-1.476c-60.394 18.345-74.721 22.5-119.001 30.355-37.085 4.637-23.507.718-36.96.718-21.64 0-25.074 64.949-24.139 86.603 2.411 60.534-.69 48.746 1.99 74.31z" fill="#e3dede"/><path d="M477.544 218.248c-7.205 33.764-9.095 42.62-23.553 55.857 5.164-154.82-2.821-113.045-9.422-154.62-7.738-5.672-10.622-3.33-22.54-10.095-23.707-17.505-22.558-24.516-33.297-36.76-9.565 11.312-23.316 21.27-33.935 25.87 2.69-4.41 4.985-9.354 6.504-12.534l-1.271-1.064c-8.918 6.447-26.936 15.613-38.008 16.596 5.948-7.31 5.253-6.39 7.63-10.844-8.881 5.46-18.317 9.168-30.222 10.211 11.215-5.54 16.242-9.33 24.94-16.578l-.795-1.476c-60.394 18.345-74.721 22.5-119.001 30.355-37.085 4.637-23.507.718-36.96.718-21.64 0-25.074 64.949-24.139 86.603 2.411 60.537-.69 48.746 1.99 74.314-8.545-7.13-19.235-25.476-24.006-51.192-1.015-5.27-1.739-10.687-2.508-16.424-3.223-24.072-10.132-52.124-5.352-80.863 4.531-27.777 39.122-68.628 62.768-90.428-72.675 67.687-51.3 143.218-39.187 203.775-3.566-53.443-13.88-139.613 34.57-142.463 65.55 0 139.277-9.305 184.877-54.905-2.85 19.95-5.327 23.555-19.577 37.805 11.4-8.55 25.65-14.25 31.35-28.5-2.85 11.4-2.85 19.95-11.4 28.5 8.55-5.7 17.1-14.25 25.65-22.8 0 8.55-5.7 17.1-8.55 25.65 5.7-14.25 22.8-22.8 25.65-37.05-8.55 37.05 35.252 56.957 48.79 64.795 18.524 25.65 19.237 79.8 14.962 124.687 15.675-51.3 8.55-138.937-37.763-199.5 50.588 37.05 61.221 139.368 51.805 182.36zM187.052 74.363c34.79-1.023 60.32-6.66 97.612-27.787-35.873 15.72-58.573 23.221-97.612 27.787zm94.762-12.112c18.411-7.641 31.222-24.217 52.013-29.213-19.16 6.65-32.485 23.327-52.013 29.213zM171.377 72.938c13.192-23.723 41.382-43.383 76.95-46.312-28.945 5.38-59.941 21.996-76.95 46.312z" fill="#d4baba"/><path d="M261.864 17.406C299.156 1.463 333.103 3.09 368.74 23.063c-37.4-15.973-65.99-12.916-65.99-12.916-6.805.533-17.687.27-40.886 7.259zM408.64 40.163c11.796 4.543 16.718 11.446 23.892 21.407 10.502 16.968 13.44 24.319 19.56 41.293-5.943-24.379-19.272-56.125-43.452-62.7zm-66.975-.712c-20.278 17.108-34.98 26.325-75.525 39.9 32.04-7.61 52.46-16.584 75.525-39.9zm65.55 17.812c5.891 20.053 16.747 31.228 33.488 41.325-15.561-11.705-25.736-22.569-33.488-41.325zm-225.15-10.687s-1.385 1.026-3.668 2.713c-26.063 18.465-46.438 53.75-46.92 98.462 5.686-44.483 23.314-75.788 50.588-101.175zM195.602 59.4c22.107-11.557 32.316-11.648 69.112-17.813-31.757 2.215-47.467 3.728-69.112 17.813zm59.987 12.052c-13.01 6.527-43.54 13.837-43.54 13.51-10.707 2.376-29.27 6.5-29.27 6.5 7.188-.909 19.52-2.351 29.692-4.534 0 .385 25.068-5.657 32.43-9.46 8.083-3.813 5.344-2.316 13.404-7.38-.003 0-1.032.518-2.716 1.364z" fill="#f2f2f2"/><path d="M434.72 39.28c-12.053-9.374-29.421-13.512-44.805-12.94C376.773 5.098 335.335-1.013 310.2-1.275c-37.916-.393-97.823 10.411-131.413 32.148-31.26 20.041-59.916 57.815-66.035 95.304-3.66 22.005-.507 44.805 3.22 66.633 1.825 10.545 2.765 21.176 4.646 30.951 5.407 29.147 17.941 47.384 25.907 52.925-3.036-28.087.276-14.245-2.195-76.238-1.148-26.593 3.72-87.535 24.197-85.67 13.916.982 2.89 3.394 36.195-.773 43.739-7.758 58.043-11.833 119.101-30.378-9.567 7.974-14.543 11.593-27.36 17.727-.028-.029-.028 0-.028 0-.4.2-.827.399-1.226.57 10.6-.069 23.786-3.72 32.202-8.892-1.16 2.171-4.65 6.119-7.236 9.405 10.956 0 30.61-9.799 40.356-16.844-1.368 2.85-4.568 9.867-8.011 14.849 3.252-1.625 11.04-3.742 26.59-16.9 3.164-2.651 6.783-6.242 9.633-9.605 9.545 10.881 8.972 18.57 32.86 36.195 11.851 6.726 15.055 4.63 22.174 9.832 6.287 41.177 14.632-2.266 9.29 156.123 15.96-14.136 17.885-22.874 25.309-57.655 10.57-48.26-3.816-149.26-43.656-179.151zm38.985 178.552c-6.316 35.015-6.846 40.926-19.608 54.777 2.32-30.78 4.36-58.308 3.759-89.319-1.266-45.774-7.353-37.187-11.685-64.752-8.202-5.76-12.178-4.717-19.722-8.122-1.311-.485-2.394-1.311-3.62-1.938-23.917-16.599-23.934-24.522-33.715-34.97 2.767-3.175 5.167-6.814 5.956-8.379-4.3 6.453-22.734 23.481-40.213 33.146 3.018-4.777 5.312-9.42 6.954-13.623 4.945-3.455 8.322-6.72 11.172-9.548-9.744 8.094-34.841 22.686-50.588 25.85.496-.51 5.344-5.204 7.171-8.761 3.862-1.545 14.296-7.92 17.966-11.979-17.966 11.979-38.403 19.152-45.54 20.338 8.733-3.275 20.064-13.484 25.878-18.126 5.618-4.486 6.706-6.287 12.537-12.198-3.83 2.673-9.804 8.53-17.26 11.676-4.408 1.861-125.086 35.62-146.073 30.136-4.212-1.054-8.975-2.331-13.167-1.111-33.63 14.466-21.264 107.257-20.805 135.745.387 24.006 2.109 28.187 2.109 28.187-22.09-20.976-23.054-67.13-25.365-83.163-2.93-21.25-5.48-43.808-1.568-64.895 6.384-36.024 33.95-72.41 63.441-91.37 44.087-28.615 175.543-52.82 208.164-8.066 80.986 0 92.346 133.311 83.822 190.465z" fill="#b57b7b"/><defs id="SvgjsDefs1001"><radialGradient id="SvgjsRadialGradient2886" cx="100" cy="114" r="41" gradientUnits="userSpaceOnUse" class="svga-on-canvas-facehighlight-gradient-single-0"><stop id="SvgjsStop2887" stop-opacity=".5" stop-color="#ffe4d6" offset="0"/><stop id="SvgjsStop2888" stop-opacity="0" stop-color="#f0c7b1" offset=".9"/></radialGradient><radialGradient id="SvgjsRadialGradient2890" cx="100" cy="54" r="37" gradientUnits="userSpaceOnUse" class="svga-on-canvas-facehighlight-gradient-single-1"><stop id="SvgjsStop2891" stop-opacity=".5" stop-color="#ffe4d6" offset="0"/><stop id="SvgjsStop2892" stop-opacity="0" stop-color="#f0c7b1" offset=".9"/></radialGradient><linearGradient id="SvgjsLinearGradient3098" x1="100" y1="171" x2="100" y2="127" gradientUnits="userSpaceOnUse" class="svga-on-canvas-chinshadow-gradient-single-0"><stop id="SvgjsStop3099" stop-opacity=".8" stop-color="#e1ac8f" offset="0"/><stop id="SvgjsStop3100" stop-color="#c27b55" offset=".7"/></linearGradient><linearGradient id="SvgjsLinearGradient3102" x1="100" y1="142" x2="100" y2="139" gradientUnits="userSpaceOnUse" class="svga-on-canvas-mouth-gradient-single-0"><stop id="SvgjsStop3103" stop-color="#e8b9a0" offset=".1"/><stop id="SvgjsStop3104" stop-color="#e1ac8f" offset="1"/></linearGradient><radialGradient id="SvgjsRadialGradient3130" cx="121.986" cy="82.496" fx="133.239" fy="82.527" r="16.003" gradientTransform="matrix(.9998 .0208 .0166 -.7998 -45.32 145.94)" gradientUnits="userSpaceOnUse" class="svga-on-canvas-eyesfront-gradient-left-3"><stop id="SvgjsStop3131" stop-color="#e1ac8f" offset="0"/><stop id="SvgjsStop3132" stop-opacity=".3" stop-color="#e1ac8f" offset=".7"/><stop id="SvgjsStop3133" stop-opacity="0" stop-color="#f0c7b1" offset="1"/></radialGradient><radialGradient id="SvgjsRadialGradient3135" cx="68.931" cy="105.995" r="29.524" gradientTransform="translate(-1.68 1.313) scale(1.0336)" gradientUnits="userSpaceOnUse" class="svga-on-canvas-eyesfront-gradient-left-4"><stop id="SvgjsStop3136" stop-opacity="0" offset=".95"/><stop id="SvgjsStop3137" stop-opacity=".2" offset="1"/></radialGradient><radialGradient id="SvgjsRadialGradient3150" cx="121.587" cy="82.496" fx="132.839" fy="82.527" r="16.003" gradientTransform="matrix(-.9998 .0208 -.0166 -.7998 244.52 145.948)" gradientUnits="userSpaceOnUse" class="svga-on-canvas-eyesfront-gradient-right-3"><stop id="SvgjsStop3151" stop-color="#e1ac8f" offset="0"/><stop id="SvgjsStop3152" stop-opacity=".3" stop-color="#e1ac8f" offset=".7"/><stop id="SvgjsStop3153" stop-opacity="0" stop-color="#f0c7b1" offset="1"/></radialGradient><radialGradient id="SvgjsRadialGradient3155" cx="69.316" cy="105.995" r="29.524" gradientTransform="matrix(-1.0336 0 0 1.0336 201.68 1.313)" gradientUnits="userSpaceOnUse" class="svga-on-canvas-eyesfront-gradient-right-4"><stop id="SvgjsStop3156" stop-opacity="0" offset=".95"/><stop id="SvgjsStop3157" stop-opacity=".2" offset="1"/></radialGradient><radialGradient id="SvgjsRadialGradient3161" cx="125.2" cy="85" r="13" gradientTransform="matrix(-1 0 0 1 200 0)" gradientUnits="userSpaceOnUse" class="svga-on-canvas-eyesback-gradient-left-0"><stop id="SvgjsStop3162" stop-color="#fff" offset="0"/><stop id="SvgjsStop3163" stop-color="#fdfefe" offset=".544"/><stop id="SvgjsStop3164" stop-color="#f6f8f9" offset=".74"/><stop id="SvgjsStop3165" stop-color="#eaeff2" offset=".879"/><stop id="SvgjsStop3166" stop-color="#d9e3e8" offset=".992"/><stop id="SvgjsStop3167" stop-color="#d8e2e7" offset="1"/></radialGradient><radialGradient id="SvgjsRadialGradient3169" cx="124.801" cy="85" r="13" gradientUnits="userSpaceOnUse" class="svga-on-canvas-eyesback-gradient-right-0"><stop id="SvgjsStop3170" stop-color="#fff" offset="0"/><stop id="SvgjsStop3171" stop-color="#fdfefe" offset=".544"/><stop id="SvgjsStop3172" stop-color="#f6f8f9" offset=".74"/><stop id="SvgjsStop3173" stop-color="#eaeff2" offset=".879"/><stop id="SvgjsStop3174" stop-color="#d9e3e8" offset=".992"/><stop id="SvgjsStop3175" stop-color="#d8e2e7" offset="1"/></radialGradient><radialGradient id="SvgjsRadialGradient3177" cx="125.2" cy="85" r="13" gradientTransform="matrix(-1 0 0 1 200 0)" gradientUnits="userSpaceOnUse" class="svga-on-canvas-eyesfront-gradient-left-0"><stop id="SvgjsStop3178" stop-color="#fff" offset="0"/><stop id="SvgjsStop3179" stop-color="#fdfefe" offset=".544"/><stop id="SvgjsStop3180" stop-color="#f6f8f9" offset=".74"/><stop id="SvgjsStop3181" stop-color="#eaeff2" offset=".879"/><stop id="SvgjsStop3182" stop-color="#d9e3e8" offset=".992"/><stop id="SvgjsStop3183" stop-color="#d8e2e7" offset="1"/></radialGradient><radialGradient id="SvgjsRadialGradient3188" cx="124.801" cy="85" r="13" gradientUnits="userSpaceOnUse" class="svga-on-canvas-eyesfront-gradient-right-0"><stop id="SvgjsStop3189" stop-color="#fff" offset="0"/><stop id="SvgjsStop3190" stop-color="#fdfefe" offset=".544"/><stop id="SvgjsStop3191" stop-color="#f6f8f9" offset=".74"/><stop id="SvgjsStop3192" stop-color="#eaeff2" offset=".879"/><stop id="SvgjsStop3193" stop-color="#d9e3e8" offset=".992"/><stop id="SvgjsStop3194" stop-color="#d8e2e7" offset="1"/></radialGradient><radialGradient id="SvgjsRadialGradient3378" cx="-568.659" cy="-521.042" r="59.751" gradientTransform="matrix(.096 -.0248 .0245 .0961 141.281 119.99)" gradientUnits="userSpaceOnUse" class="svga-on-canvas-eyesiris-gradient-left-1"><stop id="SvgjsStop3379" stop-color="#fff" offset="0"/><stop id="SvgjsStop3380" stop-opacity="0" stop-color="#fff" offset="1"/></radialGradient><radialGradient id="SvgjsRadialGradient3382" cx="-582.838" cy="-519.099" r="59.745" gradientTransform="matrix(.0991 .00089 -.0011 .0991 131.113 135.986)" gradientUnits="userSpaceOnUse" class="svga-on-canvas-eyesiris-gradient-left-2"><stop id="SvgjsStop3383" stop-color="#fff" offset="0"/><stop id="SvgjsStop3384" stop-opacity="0" stop-color="#fff" offset="1"/></radialGradient><linearGradient id="SvgjsLinearGradient3388" x1="122.67" y1="88.268" x2="123.606" y2="87.152" gradientTransform="translate(-52)" gradientUnits="userSpaceOnUse" class="svga-on-canvas-eyesiris-gradient-left-5"><stop id="SvgjsStop3389" stop-color="#fff" offset="0"/><stop id="SvgjsStop3390" stop-opacity="0" stop-color="#fff" offset="1"/></linearGradient><linearGradient id="SvgjsLinearGradient3392" x1="127.212" y1="82.296" x2="126.463" y2="83.189" gradientTransform="translate(-52)" gradientUnits="userSpaceOnUse" class="svga-on-canvas-eyesiris-gradient-left-6"><stop id="SvgjsStop3393" stop-color="#fff" offset="0"/><stop id="SvgjsStop3394" stop-opacity="0" stop-color="#fff" offset="1"/></linearGradient><linearGradient id="SvgjsLinearGradient3396" x1="129.636" y1="79.822" x2="127.91" y2="81.879" gradientTransform="translate(-52)" gradientUnits="userSpaceOnUse" class="svga-on-canvas-eyesiris-gradient-left-7"><stop id="SvgjsStop3397" stop-color="#fff" offset="0"/><stop id="SvgjsStop3398" stop-opacity="0" stop-color="#fff" offset="1"/></linearGradient><radialGradient id="SvgjsRadialGradient3401" cx="-568.654" cy="-521.042" r="59.752" gradientTransform="matrix(.096 -.0248 .0245 .0961 193.28 119.99)" gradientUnits="userSpaceOnUse" class="svga-on-canvas-eyesiris-gradient-right-1"><stop id="SvgjsStop3402" stop-color="#fff" offset="0"/><stop id="SvgjsStop3403" stop-opacity="0" stop-color="#fff" offset="1"/></radialGradient><radialGradient id="SvgjsRadialGradient3405" cx="-582.833" cy="-519.102" r="59.747" gradientTransform="matrix(.0991 .00089 -.0011 .0991 183.113 135.986)" gradientUnits="userSpaceOnUse" class="svga-on-canvas-eyesiris-gradient-right-2"><stop id="SvgjsStop3406" stop-color="#fff" offset="0"/><stop id="SvgjsStop3407" stop-opacity="0" stop-color="#fff" offset="1"/></radialGradient><linearGradient id="SvgjsLinearGradient3411" x1="122.67" y1="88.268" x2="123.606" y2="87.152" gradientUnits="userSpaceOnUse" class="svga-on-canvas-eyesiris-gradient-right-5"><stop id="SvgjsStop3412" stop-color="#fff" offset="0"/><stop id="SvgjsStop3413" stop-opacity="0" stop-color="#fff" offset="1"/></linearGradient><linearGradient id="SvgjsLinearGradient3415" x1="127.212" y1="82.296" x2="126.463" y2="83.189" gradientUnits="userSpaceOnUse" class="svga-on-canvas-eyesiris-gradient-right-6"><stop id="SvgjsStop3416" stop-color="#fff" offset="0"/><stop id="SvgjsStop3417" stop-opacity="0" stop-color="#fff" offset="1"/></linearGradient><linearGradient id="SvgjsLinearGradient3419" x1="129.636" y1="79.822" x2="127.91" y2="81.879" gradientUnits="userSpaceOnUse" class="svga-on-canvas-eyesiris-gradient-right-7"><stop id="SvgjsStop3420" stop-color="#fff" offset="0"/><stop id="SvgjsStop3421" stop-opacity="0" stop-color="#fff" offset="1"/></linearGradient></defs></svg>